<svg id="icons" xmlns="http://www.w3.org/2000/svg" viewBox="0 0 128 128"><defs><style>.cls-1{fill:#ffe300;}.cls-2{fill:#303442;opacity:0.08;}.cls-3{fill:#92d5ed;}.cls-4{fill:none;stroke:#303442;stroke-linecap:round;stroke-linejoin:round;stroke-width:4px;}</style></defs><title>note</title><path class="cls-1" d="M98,30v76a3.9989,3.9989,0,0,1-4,4H34a3.9989,3.9989,0,0,1-4-4V30a3.9989,3.9989,0,0,1,4-4H44v4a4,4,0,0,0,8,0V26h8v4a4,4,0,0,0,8,0V26h8v4a4,4,0,0,0,8,0V26H94A3.9989,3.9989,0,0,1,98,30Z"/><path class="cls-2" d="M94,100H34a3.99891,3.99891,0,0,1-4-4v10a3.99891,3.99891,0,0,0,4,4H94a3.99891,3.99891,0,0,0,4-4V96A3.99891,3.99891,0,0,1,94,100Z"/><path class="cls-3" d="M52,26v4a4,4,0,0,1-8,0V22a4,4,0,1,1,8,0Z"/><path class="cls-3" d="M68,26v4a4,4,0,0,1-8,0V22a4,4,0,1,1,8,0Z"/><path class="cls-3" d="M84,26v4a4,4,0,0,1-8,0V22a4,4,0,1,1,8,0Z"/><line class="cls-4" x1="60" y1="26" x2="52" y2="26"/><path class="cls-4" d="M84,26H94a3.9989,3.9989,0,0,1,4,4v76a3.9989,3.9989,0,0,1-4,4H34a3.9989,3.9989,0,0,1-4-4V30a3.9989,3.9989,0,0,1,4-4H44"/><line class="cls-4" x1="44" y1="52" x2="84" y2="52"/><line class="cls-4" x1="44" y1="64" x2="84" y2="64"/><line class="cls-4" x1="44" y1="76" x2="84" y2="76"/><line class="cls-4" x1="44" y1="88" x2="72" y2="88"/><line class="cls-4" x1="76" y1="26" x2="68" y2="26"/><path class="cls-4" d="M68,26v4a4,4,0,0,1-8,0V22a4,4,0,1,1,8,0Z"/><path class="cls-4" d="M52,26v4a4,4,0,0,1-8,0V22a4,4,0,1,1,8,0Z"/><path class="cls-4" d="M84,26v4a4,4,0,0,1-8,0V22a4,4,0,1,1,8,0Z"/></svg>